# xmcd
#
# Track frame offsets:
# 150
# 22547
# 54885
# 75742
# 100672
# 121017
# 144730
# 166125
# 190252
# 211047
# 234570
# 258517
# 278675
# 298770
#
# Disc length: 4411 seconds
#
#
# Revision: 3
# Processed by: cddbd v1.5.1PL0 Copyright (c) Steve Scherf et al.
# Submitted via: FreeRIP 2.942 
#
DISCID=b111390e
DTITLE=Freddie Jackson - Greatest Hits
DYEAR=1993
DGENRE=R&B
TTITLE0=Do Me Again (Let Freddie Do You Mix)
TTITLE1=Rock Me Tonight
TTITLE2=I Don't Want To Lose Your Love
TTITLE3=I Could Use A Little Love (Right Now)
TTITLE4=Jam Tonight
TTITLE5=Nice and Slow
TTITLE6=You Are My Lady
TTITLE7=Just Love Me Down
TTITLE8=Have You Ever Loved Somebody (Edit)
TTITLE9=Hey Lover
TTITLE10=Love is Just a Touch Away
TTITLE11=Tasty Love
TTITLE12=Christmas Forever
TTITLE13=Rock Me Tonight (Remix)
EXTD=
EXTT0=
EXTT1=
EXTT2=
EXTT3=
EXTT4=
EXTT5=
EXTT6=
EXTT7=
EXTT8=
EXTT9=
EXTT10=
EXTT11=
EXTT12=
EXTT13=
PLAYORDER=
